<?xml version="1.0" encoding="UTF-8" standalone="no"?>
<!DOCTYPE svg PUBLIC "-//W3C//DTD SVG 1.1//EN" "http://www.w3.org/Graphics/SVG/1.1/DTD/svg11.dtd">
<svg width="100%" height="100%" viewBox="0 0 1589 1766" version="1.1" xmlns="http://www.w3.org/2000/svg" xmlns:xlink="http://www.w3.org/1999/xlink" xml:space="preserve" xmlns:serif="http://www.serif.com/" style="fill-rule:evenodd;clip-rule:evenodd;stroke-linejoin:round;stroke-miterlimit:2;">
    <g transform="matrix(1,0,0,1,-2339.345101,-173.812671)">
        <g transform="matrix(1.806747,0,0,1.729401,1307.198181,-519.752046)">
            <path d="M741.931,1221.001C742.621,1258.108 743.453,1266.33 737.255,1260.676C670.115,1199.431 588.388,1061.891 601.9,1047.662C609.296,1039.874 913.37,881.832 916.99,881.742C920.312,881.66 920.87,889.437 920.924,890.179C921.327,895.798 922.863,958.971 921.164,963.759C918.689,970.731 742.615,1056.38 741.239,1068.555C739.909,1080.321 743.067,1146.802 741.931,1221.001Z" style="fill:rgb(221,221,221);"/>
        </g>
        <g transform="matrix(0.997961,0,0,0.955239,24.706592,72.469299)">
            <path d="M3014.353,592.226C3021.655,593.957 3121.37,632.625 3159.128,645.542C3187.886,655.38 3230.761,662.102 3232.358,691.244C3236.508,766.973 3231.476,821.221 3238.187,823.55C3244.156,825.619 3285.364,804.518 3386.119,744.477C3450.78,705.946 3451.45,707.642 3453.043,701.374C3454.926,693.971 3454.454,668.972 3454.511,539.775C3454.563,420.748 3456.617,241.755 3456.617,241.755C3456.617,241.755 3907.974,412.599 3908.859,427.615C3911.019,464.303 3910.175,530.498 3910.087,549.041C3910.306,606.35 3916.318,612.701 3887.608,630.237C3804.183,681.189 3790.705,691.935 3790.94,672.182C3791.046,663.187 3786.383,580.992 3784.736,519.616C3784.383,506.483 3763.194,493.267 3763.194,493.267C3763.194,493.267 3610.642,430.22 3579.087,425.494C3573.767,424.697 3574.251,429.587 3573.86,439.551C3570.878,515.605 3576.15,773.008 3574.484,779.837C3573.293,784.723 3567.814,787.33 3563.954,790.397C3560.71,792.974 3159.6,1018.748 3150.628,1025.733C3147.336,1028.294 3120.325,1049.953 3118.183,1022.802C3115.257,985.7 3115.114,771.24 3110.583,764.473C3104.853,755.918 3017.461,724.821 3010.239,726.635C3007.094,727.425 2999.09,731.622 2986.337,739.033C2936.506,767.988 2328.1,1072.251 2322.376,1066.175C2317.794,1061.311 2319.827,545.007 2320.006,491.704C2320.214,429.361 2313.934,427.799 2336.785,415.118C2388.406,386.474 2454.333,360.957 2556.594,316.6C2635.696,282.289 3096.729,96.433 3129.39,106.485C3142.134,110.406 3203.237,138.027 3228.177,154.179C3234.432,158.229 3236.85,159.398 3238.785,163.612C3240.719,167.825 3241.379,170.751 3241.783,179.46C3243.302,212.159 3243.188,283.735 3238.189,288.084C3229.667,295.5 3218.125,287.089 3180.317,272.184C3176.122,270.529 3123.231,242.577 3108.926,243.696C3104.445,244.047 2455.958,527.196 2455.958,527.196C2455.958,527.196 2445.902,533.351 2443.288,537.098C2440.674,540.845 2440.243,539.426 2440.277,550.78C2440.498,625.019 2443.617,810.235 2446.063,818.161C2447.313,822.209 2451.356,828.593 2456.364,830.489C2461.894,832.582 2474.954,831.372 2481.9,828.289C2575.139,786.899 2955.539,611.373 2966.202,603.358C2979.073,593.685 3003.072,589.551 3014.353,592.226Z" style="fill:rgb(221,221,221);"/>
        </g>
        <g transform="matrix(0.997961,0,0,0.955239,24.706592,86.797884)">
            <path d="M2801.607,1415.919C2801.607,1415.919 3886.689,784.922 3896.741,783.053C3911.766,780.257 3907.136,791.535 3905.901,973.862C3904.508,1179.792 3884.369,1460.168 3410.25,1772.444C3339.807,1818.84 3121.989,1941.152 3103.703,1939.116C3088.897,1937.468 2804.751,1776.35 2800.381,1753.966C2798.601,1744.853 2801.607,1415.919 2801.607,1415.919ZM3723.894,1035.774C3723.894,1035.774 3068.957,1394.775 2999.745,1440.443C2988.698,1447.733 2935.885,1475.432 2934.955,1492.908C2933.338,1523.251 2936.625,1646.825 2937.675,1684.162C2937.866,1690.958 2937.722,1692.51 2938.983,1694.897C2940.107,1697.024 2940.633,1696.214 2945.242,1698.487C2966.493,1708.967 3051.856,1770.476 3082.936,1787.348C3095.613,1794.23 3096.75,1795.959 3104.024,1796.821C3111.299,1797.683 3112.248,1797.322 3126.584,1792.518C3147.349,1785.56 3190.529,1763.013 3220.931,1745.35C3256.744,1724.544 3302.111,1694.551 3341.462,1667.679C3380.721,1640.87 3421.378,1612.374 3457.037,1584.118C3491.17,1557.071 3530.04,1521.588 3555.415,1498.145C3574.21,1480.781 3609.289,1443.461 3609.289,1443.461C3609.289,1443.461 3658.305,1385.614 3675.47,1360.934C3685.539,1346.456 3704.71,1311.306 3712.278,1295.378C3723.859,1271.001 3744.975,1221.981 3754.944,1194.718C3762.408,1174.303 3767.811,1151.111 3772.089,1131.802C3775.954,1114.354 3779.26,1096.689 3780.61,1078.869C3782.202,1057.868 3782.144,1006.898 3781.638,1005.798C3777.612,997.038 3723.894,1035.774 3723.894,1035.774Z" style="fill:rgb(221,221,221);"/>
        </g>
    </g>
</svg>
